M48
;Layer_Color=9474304
;FILE_FORMAT=4:4
METRIC,LZ
;TYPE=PLATED
T01F00S00C0.7112
T02F00S00C1.0008
T03F00S00C1.0998
T04F00S00C1.1989
T05F00S00C1.5011
%
T01
X00065882Y00025244
X00263079Y0002525
X002674Y001008
X002669Y001309
X00531346Y00073223
X006511Y00082
X00651779Y0002185
X00845Y000332
X009519Y002457
X00971296Y00341884
X009207Y003043
X008803Y003076
X008096Y003405
X007625Y003848
X00763Y00421331
X00721614Y00421132
X00728055Y00488397
X007057Y004884
X006878Y004882
X00720852Y0053848
X005881Y005385
X005884Y005074
X006041Y005197
X006046Y004789
X00588899Y00440268
X005534Y00456
X00548797Y00392788
X005573Y003649
X00545702Y00336156
X00587916Y00336992
X00580096Y00317898
X0061387Y00282805
X006892Y002947
X007115Y003049
X00714222Y002174
X006747Y002098
X006479Y002035
X0067Y001708
X006018Y001745
X005856Y001658
X005689Y001569
X005859Y00199
X0055314Y002201
X007366Y001551
X00800226Y00181877
X008712Y001952
X008567Y003909
X0083693Y00505598
X006788Y003715
X006496Y003878
X00510469Y0031792
X004638Y00308
X004363Y003383
X003976Y00349
X003722Y003487
X003692Y003042
X00349758Y0032258
X00334663Y00422014
X004056Y004109
X00485Y00471
X005242Y005057
X004709Y005363
X004803Y002395
X004529Y001607
X005109Y0016
X00409194Y00197612
X003318Y001814
X002775Y00192278
X002413Y0034036
X00172894Y00306203
X00172Y004081
X0010967Y00677615
X003771Y00624
X00643Y006653
X00961027Y00675902
T02
X003009Y001087
Y001341
X003263
Y001087
X003517
Y001341
X003771
Y001087
X004025
Y001341
X004279
Y001087
X004533
Y001341
X004787
Y001087
X005041
X005295
Y001341
X005041
X005549
Y001087
X005803
Y001341
X006057
Y001087
X006311
Y001341
X006565
Y001087
X006819
Y001341
X007073
Y001087
X005295Y005659
X005041
X004787
X004533
X004279
X004025
X003771
X003517
X003263
X003009
Y005913
X003263
X003517
X003771
X004025
X004279
X004533
X004787
X005041
X005295
X005549
Y005659
X005803
Y005913
X006057
Y005659
X006311
Y005913
X006565
Y005659
T03
X007479Y001087
Y001341
X007733
Y001087
X007987
Y001341
X008241
X008495
Y001087
X008241
X008749
Y001341
X009003
X009257
Y001087
X009003
X009511
Y001341
X009765
Y001087
T04
X007076Y005652
X00733
X007584
X007838
X008092
X008346
X0086
X008854
Y005906
X0086
X008346
X008092
X007838
X007584
X00733
X007076
T05
X00038912Y00139487
X00119888
X000794Y0018
X00038912Y00220488
X00119888
Y00487087
X00038912
X000794Y005276
X00038912Y00568088
X00119888
M30
